<mxfile host="app.diagrams.net" modified="2024-06-02T17:35:34.567Z" agent="Mozilla/5.0 (Windows NT 10.0; Win64; x64) AppleWebKit/537.36 (KHTML, like Gecko) Chrome/125.0.0.0 Safari/537.36" etag="eFkMYY2eEbiuAGx88lqm" version="24.4.0" type="device">
  <diagram name="Page-1" id="w-84buOLUUwVZAnM61_Z">
    <mxGraphModel dx="1285" dy="467" grid="1" gridSize="10" guides="1" tooltips="1" connect="1" arrows="1" fold="1" page="1" pageScale="1" pageWidth="850" pageHeight="1100" math="0" shadow="0">
      <root>
        <mxCell id="0" />
        <mxCell id="1" parent="0" />
        <mxCell id="QrxtP46WI9ZwFryCG9iy-1" value="" style="strokeWidth=1;shadow=0;dashed=0;align=center;html=1;shape=mxgraph.mockup.containers.browserWindow;rSize=0;strokeColor=#666666;strokeColor2=#008cff;strokeColor3=#c4c4c4;mainText=,;recursiveResize=0;" vertex="1" parent="1">
          <mxGeometry x="150" y="60" width="830" height="1200" as="geometry" />
        </mxCell>
        <mxCell id="QrxtP46WI9ZwFryCG9iy-2" value="Page 1" style="strokeWidth=1;shadow=0;dashed=0;align=center;html=1;shape=mxgraph.mockup.containers.anchor;fontSize=17;fontColor=#666666;align=left;whiteSpace=wrap;" vertex="1" parent="QrxtP46WI9ZwFryCG9iy-1">
          <mxGeometry x="60" y="12" width="110" height="26" as="geometry" />
        </mxCell>
        <mxCell id="QrxtP46WI9ZwFryCG9iy-3" value="https://www.draw.io" style="strokeWidth=1;shadow=0;dashed=0;align=center;html=1;shape=mxgraph.mockup.containers.anchor;rSize=0;fontSize=17;fontColor=#666666;align=left;" vertex="1" parent="QrxtP46WI9ZwFryCG9iy-1">
          <mxGeometry x="130" y="60" width="250" height="26" as="geometry" />
        </mxCell>
        <mxCell id="QrxtP46WI9ZwFryCG9iy-4" value="&lt;div style=&quot;text-align: right;&quot;&gt;&lt;span style=&quot;background-color: initial;&quot;&gt;&lt;span style=&quot;white-space: pre;&quot;&gt;&#x9;&lt;/span&gt;&lt;span style=&quot;white-space: pre;&quot;&gt;&#x9;&lt;/span&gt;&lt;span style=&quot;white-space: pre;&quot;&gt;&#x9;&lt;/span&gt;&lt;span style=&quot;white-space: pre;&quot;&gt;&#x9;&lt;/span&gt;&lt;span style=&quot;white-space: pre;&quot;&gt;&#x9;&lt;/span&gt;&lt;span style=&quot;white-space: pre;&quot;&gt;&#x9;&lt;/span&gt;&lt;span style=&quot;white-space: pre;&quot;&gt;&#x9;&lt;/span&gt;&lt;span style=&quot;white-space: pre;&quot;&gt;&#x9;&lt;/span&gt;&lt;span style=&quot;white-space: pre;&quot;&gt;&#x9;&lt;/span&gt;&lt;span style=&quot;white-space: pre;&quot;&gt;&#x9;&lt;/span&gt;&lt;span style=&quot;white-space: pre;&quot;&gt;&#x9;&lt;/span&gt;&lt;span style=&quot;white-space: pre;&quot;&gt;&#x9;&lt;/span&gt;&lt;span style=&quot;white-space: pre;&quot;&gt;&#x9;&lt;/span&gt;Home&lt;/span&gt;&lt;span style=&quot;background-color: initial; white-space: pre;&quot;&gt;&#x9;&lt;/span&gt;&lt;span style=&quot;background-color: initial;&quot;&gt;Contact Us&amp;nbsp;&lt;/span&gt;&lt;span style=&quot;background-color: initial; white-space: pre;&quot;&gt;&#x9;&lt;/span&gt;&lt;span style=&quot;background-color: initial;&quot;&gt;About Us&lt;/span&gt;&lt;span style=&quot;background-color: initial; white-space: pre;&quot;&gt;&#x9;&lt;span style=&quot;white-space: pre;&quot;&gt;&#x9;&lt;/span&gt;Blog&lt;/span&gt;&lt;span style=&quot;background-color: initial;&quot;&gt;&amp;nbsp;&lt;/span&gt;&lt;span style=&quot;background-color: initial; white-space: pre;&quot;&gt;&#x9;&lt;/span&gt;&lt;span style=&quot;background-color: initial;&quot;&gt;Figures&lt;/span&gt;&lt;span style=&quot;background-color: initial; white-space: pre;&quot;&gt;&#x9;&lt;/span&gt;&lt;span style=&quot;background-color: initial; white-space: pre;&quot;&gt;&#x9;&lt;/span&gt;&lt;span style=&quot;background-color: initial;&quot;&gt;Apparel&lt;/span&gt;&lt;/div&gt;&lt;span style=&quot;white-space: pre;&quot;&gt;&lt;/span&gt;" style="rounded=0;whiteSpace=wrap;html=1;" vertex="1" parent="QrxtP46WI9ZwFryCG9iy-1">
          <mxGeometry y="110" width="830" height="60" as="geometry" />
        </mxCell>
        <mxCell id="QrxtP46WI9ZwFryCG9iy-5" value="Anime Oasis" style="ellipse;whiteSpace=wrap;html=1;" vertex="1" parent="QrxtP46WI9ZwFryCG9iy-1">
          <mxGeometry x="20" y="110" width="120" height="60" as="geometry" />
        </mxCell>
        <mxCell id="QrxtP46WI9ZwFryCG9iy-6" value="" style="rounded=0;whiteSpace=wrap;html=1;rotation=90;" vertex="1" parent="QrxtP46WI9ZwFryCG9iy-1">
          <mxGeometry x="-353.12" y="523.13" width="996.25" height="290" as="geometry" />
        </mxCell>
        <mxCell id="QrxtP46WI9ZwFryCG9iy-7" value="Create filter system that categorizes manga search when user clicks radio button to apply filter&amp;nbsp;" style="whiteSpace=wrap;html=1;aspect=fixed;" vertex="1" parent="QrxtP46WI9ZwFryCG9iy-1">
          <mxGeometry x="41" y="360" width="210" height="210" as="geometry" />
        </mxCell>
        <mxCell id="QrxtP46WI9ZwFryCG9iy-8" value="BACK" style="rounded=1;whiteSpace=wrap;html=1;" vertex="1" parent="QrxtP46WI9ZwFryCG9iy-1">
          <mxGeometry x="20" y="190" width="120" height="30" as="geometry" />
        </mxCell>
        <mxCell id="QrxtP46WI9ZwFryCG9iy-9" value="" style="shape=singleArrow;direction=west;whiteSpace=wrap;html=1;" vertex="1" parent="QrxtP46WI9ZwFryCG9iy-1">
          <mxGeometry x="20" y="195" width="40" height="20" as="geometry" />
        </mxCell>
        <mxCell id="QrxtP46WI9ZwFryCG9iy-13" value="" style="whiteSpace=wrap;html=1;aspect=fixed;" vertex="1" parent="QrxtP46WI9ZwFryCG9iy-1">
          <mxGeometry x="320" y="230" width="180" height="180" as="geometry" />
        </mxCell>
        <mxCell id="QrxtP46WI9ZwFryCG9iy-14" value="" style="whiteSpace=wrap;html=1;aspect=fixed;" vertex="1" parent="QrxtP46WI9ZwFryCG9iy-1">
          <mxGeometry x="610" y="230" width="180" height="180" as="geometry" />
        </mxCell>
        <mxCell id="QrxtP46WI9ZwFryCG9iy-15" value="" style="whiteSpace=wrap;html=1;aspect=fixed;" vertex="1" parent="QrxtP46WI9ZwFryCG9iy-1">
          <mxGeometry x="320" y="460" width="180" height="180" as="geometry" />
        </mxCell>
        <mxCell id="QrxtP46WI9ZwFryCG9iy-16" value="" style="whiteSpace=wrap;html=1;aspect=fixed;" vertex="1" parent="QrxtP46WI9ZwFryCG9iy-1">
          <mxGeometry x="610" y="460" width="180" height="180" as="geometry" />
        </mxCell>
        <mxCell id="QrxtP46WI9ZwFryCG9iy-17" value="" style="whiteSpace=wrap;html=1;aspect=fixed;" vertex="1" parent="QrxtP46WI9ZwFryCG9iy-1">
          <mxGeometry x="320" y="720" width="180" height="180" as="geometry" />
        </mxCell>
        <mxCell id="QrxtP46WI9ZwFryCG9iy-18" value="" style="whiteSpace=wrap;html=1;aspect=fixed;" vertex="1" parent="QrxtP46WI9ZwFryCG9iy-1">
          <mxGeometry x="620" y="720" width="180" height="180" as="geometry" />
        </mxCell>
        <mxCell id="QrxtP46WI9ZwFryCG9iy-20" value="ADD TO CART" style="strokeWidth=1;shadow=0;dashed=0;align=center;html=1;shape=mxgraph.mockup.buttons.button;strokeColor=#666666;fontColor=#ffffff;mainText=;buttonStyle=round;fontSize=17;fontStyle=1;fillColor=#008cff;whiteSpace=wrap;" vertex="1" parent="QrxtP46WI9ZwFryCG9iy-1">
          <mxGeometry x="340" y="656.25" width="150" height="50" as="geometry" />
        </mxCell>
        <mxCell id="QrxtP46WI9ZwFryCG9iy-21" value="ADD TO CART" style="strokeWidth=1;shadow=0;dashed=0;align=center;html=1;shape=mxgraph.mockup.buttons.button;strokeColor=#666666;fontColor=#ffffff;mainText=;buttonStyle=round;fontSize=17;fontStyle=1;fillColor=#008cff;whiteSpace=wrap;" vertex="1" parent="QrxtP46WI9ZwFryCG9iy-1">
          <mxGeometry x="635" y="656.25" width="150" height="50" as="geometry" />
        </mxCell>
        <mxCell id="QrxtP46WI9ZwFryCG9iy-22" value="ADD TO CART" style="strokeWidth=1;shadow=0;dashed=0;align=center;html=1;shape=mxgraph.mockup.buttons.button;strokeColor=#666666;fontColor=#ffffff;mainText=;buttonStyle=round;fontSize=17;fontStyle=1;fillColor=#008cff;whiteSpace=wrap;" vertex="1" parent="QrxtP46WI9ZwFryCG9iy-1">
          <mxGeometry x="335" y="930" width="150" height="50" as="geometry" />
        </mxCell>
        <mxCell id="QrxtP46WI9ZwFryCG9iy-23" value="ADD TO CART" style="strokeWidth=1;shadow=0;dashed=0;align=center;html=1;shape=mxgraph.mockup.buttons.button;strokeColor=#666666;fontColor=#ffffff;mainText=;buttonStyle=round;fontSize=17;fontStyle=1;fillColor=#008cff;whiteSpace=wrap;" vertex="1" parent="QrxtP46WI9ZwFryCG9iy-1">
          <mxGeometry x="635" y="930" width="150" height="50" as="geometry" />
        </mxCell>
        <mxCell id="QrxtP46WI9ZwFryCG9iy-24" value="ADD TO CART" style="strokeWidth=1;shadow=0;dashed=0;align=center;html=1;shape=mxgraph.mockup.buttons.button;strokeColor=#666666;fontColor=#ffffff;mainText=;buttonStyle=round;fontSize=17;fontStyle=1;fillColor=#008cff;whiteSpace=wrap;" vertex="1" parent="QrxtP46WI9ZwFryCG9iy-1">
          <mxGeometry x="340" y="410" width="150" height="50" as="geometry" />
        </mxCell>
        <mxCell id="QrxtP46WI9ZwFryCG9iy-25" value="ADD TO CART" style="strokeWidth=1;shadow=0;dashed=0;align=center;html=1;shape=mxgraph.mockup.buttons.button;strokeColor=#666666;fontColor=#ffffff;mainText=;buttonStyle=round;fontSize=17;fontStyle=1;fillColor=#008cff;whiteSpace=wrap;" vertex="1" parent="QrxtP46WI9ZwFryCG9iy-1">
          <mxGeometry x="640" y="410" width="150" height="50" as="geometry" />
        </mxCell>
        <mxCell id="QrxtP46WI9ZwFryCG9iy-26" value="" style="html=1;verticalLabelPosition=bottom;align=center;labelBackgroundColor=#ffffff;verticalAlign=top;strokeWidth=2;strokeColor=#0080F0;shadow=0;dashed=0;shape=mxgraph.ios7.icons.shopping_cart;" vertex="1" parent="QrxtP46WI9ZwFryCG9iy-1">
          <mxGeometry x="790" y="127.25" width="30" height="25.5" as="geometry" />
        </mxCell>
        <mxCell id="QrxtP46WI9ZwFryCG9iy-27" value="APPLY&amp;nbsp;&lt;span style=&quot;white-space: pre;&quot;&gt;&#x9;&lt;/span&gt;&lt;span style=&quot;white-space: pre;&quot;&gt;&#x9;&lt;/span&gt;&lt;span style=&quot;white-space: pre;&quot;&gt;&#x9;&lt;/span&gt;&lt;span style=&quot;white-space: pre;&quot;&gt;&#x9;&lt;/span&gt;CANCEL" style="rounded=0;whiteSpace=wrap;html=1;" vertex="1" parent="QrxtP46WI9ZwFryCG9iy-1">
          <mxGeometry y="1110" width="290" height="60" as="geometry" />
        </mxCell>
        <mxCell id="QrxtP46WI9ZwFryCG9iy-28" value="" style="verticalLabelPosition=bottom;shadow=0;dashed=0;align=center;html=1;verticalAlign=top;strokeWidth=1;shape=mxgraph.mockup.markup.line;strokeColor=#999999;direction=north;" vertex="1" parent="QrxtP46WI9ZwFryCG9iy-1">
          <mxGeometry x="135" y="1110" width="20" height="60" as="geometry" />
        </mxCell>
        <mxCell id="QrxtP46WI9ZwFryCG9iy-30" value="Have this option to send user back to home page." style="whiteSpace=wrap;html=1;aspect=fixed;" vertex="1" parent="1">
          <mxGeometry x="-170" y="330" width="234" height="234" as="geometry" />
        </mxCell>
        <mxCell id="QrxtP46WI9ZwFryCG9iy-29" style="edgeStyle=orthogonalEdgeStyle;rounded=0;orthogonalLoop=1;jettySize=auto;html=1;exitX=0.75;exitY=0;exitDx=0;exitDy=0;" edge="1" parent="1" source="QrxtP46WI9ZwFryCG9iy-8" target="QrxtP46WI9ZwFryCG9iy-30">
          <mxGeometry relative="1" as="geometry">
            <mxPoint x="24" y="360" as="targetPoint" />
          </mxGeometry>
        </mxCell>
      </root>
    </mxGraphModel>
  </diagram>
</mxfile>
